<svg width="328" height="515" viewBox="0 0 328 515" fill="none" xmlns="http://www.w3.org/2000/svg">
<path d="M297.347 1.89232C305.874 1.14642 313.393 7.45469 314.139 15.9824L318.313 63.6898L58.0664 86.4584L52.5417 23.31L297.347 1.89232Z" fill="#D2EBFF" stroke="white"/>
<path d="M312 35.001C320.837 35.001 328 42.1644 328 51.001V499.001C328 507.838 320.837 515.001 312 515.001H16C7.16345 515.001 0 507.838 0 499.001V35.001H0.25V19.001C0.25 10.1644 7.41344 3.00098 16.25 3.00098H100.325C105.67 3.00098 110.662 5.67021 113.631 10.1152L130.25 35.001H312Z" fill="#AADAFF"/>
<circle cx="153" cy="37" r="12" fill="white"/>
<circle cx="156.6" cy="36.9998" r="6.6" fill="#333333" stroke="#333333" stroke-width="1.2"/>
<circle cx="12" cy="12" r="12" transform="matrix(-1 0 0 1 193 25)" fill="white"/>
<circle cx="7.2" cy="7.2" r="6.6" transform="matrix(-1 0 0 1 184.6 29.7998)" fill="#333333" stroke="#333333" stroke-width="1.2"/>
</svg>
